<?xml version="1.0" encoding="utf-8"?>
<!-- Generator: Adobe Illustrator 24.0.1, SVG Export Plug-In . SVG Version: 6.00 Build 0)  -->
<svg version="1.1" id="Layer_1" xmlns="http://www.w3.org/2000/svg" xmlns:xlink="http://www.w3.org/1999/xlink" x="0px" y="0px"
	 viewBox="0 0 460.6 167.3" style="enable-background:new 0 0 460.6 167.3;" xml:space="preserve">
<style type="text/css">
	.st0{fill:#1A1A1B;}
	.st1{fill:none;stroke:#010101;stroke-width:0.5;stroke-miterlimit:10;}
	.st2{fill:#231F20;}
	.st3{fill:#FDDE8E;}
	.st4{fill-rule:evenodd;clip-rule:evenodd;fill:#E8262A;}
	.st5{fill-rule:evenodd;clip-rule:evenodd;fill:#231F20;}
</style>
<g>
	<g>
		<path class="st0" d="M134.5,85c-0.6-1-1.4-1.8-2.4-2.6c-1-0.8-2.1-1.4-3.4-2c-2.3-1-4.9-1.4-7.6-1.4c-2.8,0-5.2,0.7-7.2,2
			c-1.3,0.9-2.4,2.1-3.3,3.6c-0.8,1.5-1.2,3.4-1.2,5.7c0,3.2,1.4,5.4,4.1,6.8c2.8,1.4,5.9,2.6,9.5,3.6c1.9,0.6,3.8,1.2,5.7,1.8
			c1.9,0.6,3.7,1.3,5.3,2.2c2,1.1,3.6,2.5,4.9,4.1c1.3,1.7,1.9,3.8,1.9,6.4c0,1-0.2,2-0.5,3.1c-0.4,1.1-0.9,2.2-1.6,3.3
			c-1.4,2-3.5,3.8-6.4,5.3c-2.9,1.5-6.8,2.2-11.7,2.2c-4.3,0-8-0.7-10.9-2.1c-2.9-1.4-5.2-2.8-6.7-4.1c-0.8-0.7-1.4-1.3-1.8-1.8
			l-0.6-0.7c0.5-0.6,0.9-1.1,1.2-1.4c0.8,1.2,2.1,2.5,4,3.7c1.9,1.3,4,2.3,6.4,3.1c1.3,0.4,2.7,0.8,4.1,1.1c1.4,0.3,2.8,0.4,4.3,0.4
			c1.8,0,3.7-0.4,5.8-1.1c2.1-0.7,3.9-1.9,5.3-3.3c0.8-0.8,1.4-1.7,1.8-2.8c0.5-1,0.7-2.1,0.7-3.3c0-1.7-0.4-3.2-1.2-4.3
			c-0.9-1.1-2-2.1-3.3-2.9c-2.6-1.5-5.8-2.7-9.5-3.6c-3.7-0.9-7.1-2.3-10-4c-1.9-1.2-3.5-2.7-4.7-4.5c-1.3-1.8-1.9-4.2-1.9-7.1
			c0-3.2,1.6-6,4.7-8.5c3.2-2.5,7.2-3.8,12.2-3.8c1.8,0,3.4,0.2,4.8,0.5c1.4,0.3,2.7,0.7,3.9,1.2c2.1,0.8,3.6,1.7,4.7,2.7l1.5,1.4
			C135,84.3,134.7,84.7,134.5,85"/>
		<path class="st1" d="M134.5,85c-0.6-1-1.4-1.8-2.4-2.6c-1-0.8-2.1-1.4-3.4-2c-2.3-1-4.9-1.4-7.6-1.4c-2.8,0-5.2,0.7-7.2,2
			c-1.3,0.9-2.4,2.1-3.3,3.6c-0.8,1.5-1.2,3.4-1.2,5.7c0,3.2,1.4,5.4,4.1,6.8c2.8,1.4,5.9,2.6,9.5,3.6c1.9,0.6,3.8,1.2,5.7,1.8
			c1.9,0.6,3.7,1.3,5.3,2.2c2,1.1,3.6,2.5,4.9,4.1c1.3,1.7,1.9,3.8,1.9,6.4c0,1-0.2,2-0.5,3.1c-0.4,1.1-0.9,2.2-1.6,3.3
			c-1.4,2-3.5,3.8-6.4,5.3c-2.9,1.5-6.8,2.2-11.7,2.2c-4.3,0-8-0.7-10.9-2.1c-2.9-1.4-5.2-2.8-6.7-4.1c-0.8-0.7-1.4-1.3-1.8-1.8
			l-0.6-0.7c0.5-0.6,0.9-1.1,1.2-1.4c0.8,1.2,2.1,2.5,4,3.7c1.9,1.3,4,2.3,6.4,3.1c1.3,0.4,2.7,0.8,4.1,1.1c1.4,0.3,2.8,0.4,4.3,0.4
			c1.8,0,3.7-0.4,5.8-1.1c2.1-0.7,3.9-1.9,5.3-3.3c0.8-0.8,1.4-1.7,1.8-2.8c0.5-1,0.7-2.1,0.7-3.3c0-1.7-0.4-3.2-1.2-4.3
			c-0.9-1.1-2-2.1-3.3-2.9c-2.6-1.5-5.8-2.7-9.5-3.6c-3.7-0.9-7.1-2.3-10-4c-1.9-1.2-3.5-2.7-4.7-4.5c-1.3-1.8-1.9-4.2-1.9-7.1
			c0-3.2,1.6-6,4.7-8.5c3.2-2.5,7.2-3.8,12.2-3.8c1.8,0,3.4,0.2,4.8,0.5c1.4,0.3,2.7,0.7,3.9,1.2c2.1,0.8,3.6,1.7,4.7,2.7l1.5,1.4
			C135,84.3,134.7,84.7,134.5,85z"/>
		<polygon class="st0" points="155.5,80.9 155.5,102.9 179.8,102.9 179.8,104.4 155.5,104.4 155.5,126.3 191.9,126.3 191.9,127.8 
			151,127.8 149.5,127.8 149.5,79.4 151,79.4 155.5,79.4 191.9,79.4 191.9,80.9 		"/>
		<polygon class="st1" points="155.5,80.9 155.5,102.9 179.8,102.9 179.8,104.4 155.5,104.4 155.5,126.3 191.9,126.3 191.9,127.8 
			151,127.8 149.5,127.8 149.5,79.4 151,79.4 155.5,79.4 191.9,79.4 191.9,80.9 		"/>
		<path class="st0" d="M201,127.9h-1.4V79.4c19.6,17.2,34.2,30.1,44,38.7V79.4h1.4v48.5c-19.6-17.8-34.3-31.1-44.1-40V127.9z"/>
		<path class="st1" d="M201,127.9h-1.4V79.4c19.6,17.2,34.2,30.1,44,38.7V79.4h1.4v48.5c-19.6-17.8-34.3-31.1-44.1-40V127.9z"/>
		<polygon class="st0" points="299.3,80.9 277.4,80.9 277.4,127.8 271.3,127.8 271.3,80.9 249.3,80.9 249.3,79.4 299.3,79.4 		"/>
		<polygon class="st1" points="299.3,80.9 277.4,80.9 277.4,127.8 271.3,127.8 271.3,80.9 249.3,80.9 249.3,79.4 299.3,79.4 		"/>
		<path class="st0" d="M333.1,78.9c2.3,0.7,4.5,1.6,6.6,2.8c3.7,2.2,6.7,5.3,9.1,9.1c2.3,3.8,3.4,8,3.4,12.6c0,2.5-0.4,4.8-1.1,7.1
			c-0.7,2.3-1.7,4.4-2.9,6.4c-2.3,3.6-5.5,6.6-9.5,8.8c-3.9,2.2-8.3,3.3-13,3.3c-4.7,0-9.1-1.1-13.1-3.3c-3.9-2.2-7.1-5.2-9.4-8.8
			c-1.3-2-2.2-4.1-2.9-6.4c-0.7-2.3-1.1-4.6-1.1-7.1c0-2.5,0.4-4.9,1.1-7.2c0.7-2.3,1.6-4.4,2.9-6.3c2.3-3.6,5.5-6.6,9.4-8.8
			c4-2.2,8.3-3.3,13.1-3.3C328.3,77.9,330.8,78.2,333.1,78.9 M335.7,124.3c3-2.1,5.3-4.8,7.1-8.2c1-1.8,1.7-3.8,2.2-6
			c0.5-2.1,0.8-4.3,0.8-6.6c0-2.3-0.3-4.6-0.8-6.7c-0.5-2.1-1.3-4.1-2.2-5.9c-1.8-3.4-4.1-6.2-7.1-8.3c-3-2.1-6.3-3.1-9.9-3.1
			c-1.9,0-3.8,0.3-5.6,0.9c-1.8,0.6-3.5,1.5-5,2.7c-2.8,2.1-5.1,4.9-6.9,8.5c-1.7,3.5-2.6,7.5-2.6,11.8c0,4.3,0.9,8.2,2.6,11.8
			c1.8,3.6,4.1,6.4,6.9,8.5c1.5,1.1,3.2,2,5,2.7c1.8,0.6,3.7,0.9,5.6,0.9C329.4,127.4,332.7,126.4,335.7,124.3"/>
		<path class="st1" d="M333.1,78.9c2.3,0.7,4.5,1.6,6.6,2.8c3.7,2.2,6.7,5.3,9.1,9.1c2.3,3.8,3.4,8,3.4,12.6c0,2.5-0.4,4.8-1.1,7.1
			c-0.7,2.3-1.7,4.4-2.9,6.4c-2.3,3.6-5.5,6.6-9.5,8.8c-3.9,2.2-8.3,3.3-13,3.3c-4.7,0-9.1-1.1-13.1-3.3c-3.9-2.2-7.1-5.2-9.4-8.8
			c-1.3-2-2.2-4.1-2.9-6.4c-0.7-2.3-1.1-4.6-1.1-7.1c0-2.5,0.4-4.9,1.1-7.2c0.7-2.3,1.6-4.4,2.9-6.3c2.3-3.6,5.5-6.6,9.4-8.8
			c4-2.2,8.3-3.3,13.1-3.3C328.3,77.9,330.8,78.2,333.1,78.9z M335.7,124.3c3-2.1,5.3-4.8,7.1-8.2c1-1.8,1.7-3.8,2.2-6
			c0.5-2.1,0.8-4.3,0.8-6.6c0-2.3-0.3-4.6-0.8-6.7c-0.5-2.1-1.3-4.1-2.2-5.9c-1.8-3.4-4.1-6.2-7.1-8.3c-3-2.1-6.3-3.1-9.9-3.1
			c-1.9,0-3.8,0.3-5.6,0.9c-1.8,0.6-3.5,1.5-5,2.7c-2.8,2.1-5.1,4.9-6.9,8.5c-1.7,3.5-2.6,7.5-2.6,11.8c0,4.3,0.9,8.2,2.6,11.8
			c1.8,3.6,4.1,6.4,6.9,8.5c1.5,1.1,3.2,2,5,2.7c1.8,0.6,3.7,0.9,5.6,0.9C329.4,127.4,332.7,126.4,335.7,124.3z"/>
		<path class="st0" d="M390.7,85c-0.6-1-1.4-1.8-2.4-2.6c-1-0.8-2.1-1.4-3.4-2c-2.3-1-4.9-1.4-7.6-1.4c-2.8,0-5.2,0.7-7.2,2
			c-1.3,0.9-2.4,2.1-3.3,3.6c-0.8,1.5-1.2,3.4-1.2,5.7c0,3.2,1.4,5.4,4.1,6.8c2.8,1.4,5.9,2.6,9.5,3.6c1.9,0.6,3.8,1.2,5.7,1.8
			c1.9,0.6,3.7,1.3,5.3,2.2c2,1.1,3.6,2.5,4.9,4.1c1.3,1.7,1.9,3.8,1.9,6.4c0,1-0.2,2-0.5,3.1c-0.4,1.1-0.9,2.2-1.6,3.3
			c-1.4,2-3.5,3.8-6.4,5.3c-2.9,1.5-6.8,2.2-11.7,2.2c-4.3,0-8-0.7-10.9-2.1c-2.9-1.4-5.2-2.8-6.7-4.1c-0.8-0.7-1.4-1.3-1.8-1.8
			l-0.6-0.7c0.5-0.6,0.9-1.1,1.2-1.4c0.8,1.2,2.1,2.5,4,3.7c1.9,1.3,4,2.3,6.4,3.1c1.3,0.4,2.7,0.8,4.1,1.1c1.4,0.3,2.8,0.4,4.3,0.4
			c1.8,0,3.7-0.4,5.8-1.1c2.1-0.7,3.9-1.9,5.3-3.3c0.8-0.8,1.4-1.7,1.8-2.8c0.5-1,0.7-2.1,0.7-3.3c0-1.7-0.4-3.2-1.2-4.3
			c-0.9-1.1-2-2.1-3.3-2.9c-2.6-1.5-5.8-2.7-9.5-3.6c-3.7-0.9-7.1-2.3-10-4c-1.9-1.2-3.5-2.7-4.7-4.5c-1.3-1.8-1.9-4.2-1.9-7.1
			c0-3.2,1.6-6,4.7-8.5c3.2-2.5,7.2-3.8,12.2-3.8c1.8,0,3.4,0.2,4.8,0.5c1.4,0.3,2.7,0.7,3.9,1.2c2.1,0.8,3.6,1.7,4.7,2.7l1.5,1.4
			C391.3,84.3,391,84.7,390.7,85"/>
		<path class="st1" d="M390.7,85c-0.6-1-1.4-1.8-2.4-2.6c-1-0.8-2.1-1.4-3.4-2c-2.3-1-4.9-1.4-7.6-1.4c-2.8,0-5.2,0.7-7.2,2
			c-1.3,0.9-2.4,2.1-3.3,3.6c-0.8,1.5-1.2,3.4-1.2,5.7c0,3.2,1.4,5.4,4.1,6.8c2.8,1.4,5.9,2.6,9.5,3.6c1.9,0.6,3.8,1.2,5.7,1.8
			c1.9,0.6,3.7,1.3,5.3,2.2c2,1.1,3.6,2.5,4.9,4.1c1.3,1.7,1.9,3.8,1.9,6.4c0,1-0.2,2-0.5,3.1c-0.4,1.1-0.9,2.2-1.6,3.3
			c-1.4,2-3.5,3.8-6.4,5.3c-2.9,1.5-6.8,2.2-11.7,2.2c-4.3,0-8-0.7-10.9-2.1c-2.9-1.4-5.2-2.8-6.7-4.1c-0.8-0.7-1.4-1.3-1.8-1.8
			l-0.6-0.7c0.5-0.6,0.9-1.1,1.2-1.4c0.8,1.2,2.1,2.5,4,3.7c1.9,1.3,4,2.3,6.4,3.1c1.3,0.4,2.7,0.8,4.1,1.1c1.4,0.3,2.8,0.4,4.3,0.4
			c1.8,0,3.7-0.4,5.8-1.1c2.1-0.7,3.9-1.9,5.3-3.3c0.8-0.8,1.4-1.7,1.8-2.8c0.5-1,0.7-2.1,0.7-3.3c0-1.7-0.4-3.2-1.2-4.3
			c-0.9-1.1-2-2.1-3.3-2.9c-2.6-1.5-5.8-2.7-9.5-3.6c-3.7-0.9-7.1-2.3-10-4c-1.9-1.2-3.5-2.7-4.7-4.5c-1.3-1.8-1.9-4.2-1.9-7.1
			c0-3.2,1.6-6,4.7-8.5c3.2-2.5,7.2-3.8,12.2-3.8c1.8,0,3.4,0.2,4.8,0.5c1.4,0.3,2.7,0.7,3.9,1.2c2.1,0.8,3.6,1.7,4.7,2.7l1.5,1.4
			C391.3,84.3,391,84.7,390.7,85z"/>
		<path class="st0" d="M430.1,104.3H413c-5.2,10.5-9.1,18.3-11.7,23.5h-1.9c10.8-21.5,18.9-37.7,24.2-48.5
			c10.8,21.6,18.9,37.8,24.3,48.5h-6.1C436.6,117.4,432.7,109.6,430.1,104.3 M429.4,102.8c-3.5-7-6.1-12.2-7.8-15.7
			c-3.5,7-6.1,12.2-7.8,15.7H429.4z"/>
		<path class="st1" d="M430.1,104.3H413c-5.2,10.5-9.1,18.3-11.7,23.5h-1.9c10.8-21.5,18.9-37.7,24.2-48.5
			c10.8,21.6,18.9,37.8,24.3,48.5h-6.1C436.6,117.4,432.7,109.6,430.1,104.3z M429.4,102.8c-3.5-7-6.1-12.2-7.8-15.7
			c-3.5,7-6.1,12.2-7.8,15.7H429.4z"/>
		<path class="st0" d="M203.5,40.4c-1.1-0.7-2.9-1.6-5.4-2.7c-3.1-1.3-5.2-2.4-6-3.1c-0.7-0.7-1.1-1.4-1.1-2.2c0-1.1,0.5-2,1.6-2.8
			c1.1-0.8,2.5-1.2,4.2-1.2c1.7,0,3.1,0.4,4.2,1.2c1.1,0.8,2.2,1.8,2.7,3.4c0,0.1,0.2,0.2,0.3,0.2c0.2,0,0.3-0.1,0.3-0.3l0.4-4.3
			c-0.9-0.5-2.2-1.1-3-1.4c-1.2-0.3-2.6-0.5-4.2-0.5c-2.9,0-5.3,0.6-7,1.9c-1.7,1.3-2.6,2.8-2.6,4.6c0,1,0.2,1.9,0.7,2.7
			c0.7,1,1.7,1.9,3,2.8c0.8,0.5,2.5,1.4,5.2,2.5c2.7,1.1,4.5,2.2,5.3,3.1c0.8,0.8,1.3,1.8,1.3,2.8c0,0.7-0.3,1.5-0.9,2.3
			s-1.4,1.4-2.3,1.8c-1,0.4-2.1,0.6-3.3,0.6c-2,0-3.7-0.6-5.3-1.8c-1.5-1.2-2.5-2.3-2.8-3.8c0-0.1,0-0.2,0-0.3
			c0-0.2-0.2-0.4-0.5-0.4c-0.3,0-0.5,0.2-0.5,0.4c0,0.2-0.5,5.2-0.5,5.2c0,0.2,0.1,0.5,0.4,0.7c0.3,0.2,1,0.5,2.1,0.8
			c2,0.6,4,0.8,6.1,0.8c2.4,0,4.4-0.3,5.9-0.9c1.5-0.6,2.7-1.6,3.5-2.8c0.9-1.2,1.3-2.6,1.3-4c0-1.1-0.3-2.1-0.8-3
			C205.4,41.9,204.6,41.1,203.5,40.4"/>
		<path class="st0" d="M273.9,38.3c3.1-1,5.2-3,5.2-5.2c0-3.3-4.6-5.9-10.2-5.9l-0.1,0c-1.8,0-4.2,0-5.1,0c-2.3,0.1-3.8,0.2-5.7,0.3
			l-1.6,0.1l0,0c-0.3,0-0.6,0.1-0.6,0.4c0,0.2,0.2,0.5,0.5,0.5l2.8,0.5c0.8,0.2,0.8,0.7,0.7,1.3v0v20.2v0c0,0.6-0.5,1.2-1.3,1.3
			l-2.2,0.5c-0.3,0-0.5,0.3-0.5,0.5c0,0.2,0.3,0.4,0.6,0.4h0h13.9h0c6.4,0,11.6-3.4,11.6-7.7C281.9,42.2,278.6,39.3,273.9,38.3
			 M268,28.4c1.7,0,3.2,0.3,4.3,0.9c0.2,0.1,4.7,2.1,1.8,6.5c-0.1,0.1-1.7,2.7-7.2,2.7c-0.9,0-1.9-0.1-3-0.2l0-9.4
			C264.4,28.7,266.1,28.4,268,28.4 M276.4,49.4c0,0-1.8,2.4-6.9,2.5c0,0-0.1,0-0.3,0c-1.2,0-5-0.2-5.3-2.8v-9
			c0.6-0.1,2.2-0.3,4.1-0.3c2.8,0,5,0.4,6.7,1.2c0,0,1.4,0.8,2.4,2.2C278.3,45.1,278.1,47.2,276.4,49.4"/>
		<path class="st0" d="M320.2,30L320.2,30c0-0.7,0.5-1.2,1.3-1.3l2.2-0.5c0.3,0,0.5-0.2,0.5-0.5c0-0.2-0.3-0.4-0.6-0.4h0h-3.4h-4.1
			h-3.4h0c-0.3,0-0.6,0.2-0.6,0.4c0,0.2,0.2,0.5,0.5,0.5h0l2.2,0.5c0.8,0.1,1.4,0.7,1.3,1.3v0l0,9.5h-16.8v-9.6
			c0-0.6,0.6-1.1,1.3-1.2l2.2-0.5c0.3,0,0.5-0.2,0.5-0.5c0-0.2-0.3-0.4-0.6-0.4h0h-3.4h-4.1h-3.4h0c-0.3,0-0.6,0.2-0.6,0.4
			c0,0.2,0.2,0.5,0.5,0.5l2.2,0.5c0.7,0.1,1.2,0.5,1.3,1.1v21c-0.1,0.5-0.6,1-1.3,1.1v0l-2.2,0.5v0c-0.3,0-0.5,0.2-0.5,0.5
			c0,0.2,0.3,0.4,0.6,0.4h0h3.4h4.1h3.4h0c0.3,0,0.6-0.2,0.6-0.4c0-0.2-0.2-0.5-0.5-0.5l-2.2-0.5c-0.7-0.1-1.3-0.6-1.3-1.2V41h16.8
			l0,9.5v0c0,0.6-0.5,1.2-1.3,1.3l-2.2,0.5h0c-0.3,0-0.5,0.2-0.5,0.5c0,0.2,0.3,0.4,0.6,0.4h0h3.4h4.1v0l3.4,0h0
			c0.3,0,0.6-0.2,0.6-0.4c0-0.2-0.2-0.5-0.5-0.5l-2.2-0.5c-0.8-0.1-1.4-0.7-1.3-1.3v0V30z"/>
		<path class="st0" d="M360.6,52.3L360.6,52.3l-1.6-0.4h0c-0.8-0.1-1.4-0.6-1.7-1.2l0,0L351.5,38l-4.9-10.7h-1.1l-10.7,23.4l0,0
			c-0.3,0.6-0.9,1.1-1.7,1.2h0l-1.6,0.4c-0.3,0-0.5,0.3-0.5,0.5c0,0.2,0.3,0.4,0.6,0.4h8c0.3,0,0.6-0.2,0.6-0.4
			c0-0.2-0.2-0.5-0.5-0.5l-2-0.5c-0.4-0.1-0.7-0.2-0.8-0.5c-0.2-0.2-0.2-0.6,0-0.9h0v0l3.5-7.6h9.7l3.3,7.3v0c0.5,0.9-0.2,1.6-1,1.7
			l-2.2,0.5c-0.3,0-0.5,0.3-0.5,0.5c0,0.2,0.3,0.4,0.6,0.4h10.1c0.3,0,0.6-0.2,0.6-0.4C361.1,52.6,360.9,52.3,360.6,52.3
			 M341.2,41.3l4.1-9.1l4.1,9.1H341.2z"/>
		<path class="st0" d="M246.6,35.3c-0.4-1.1-1.1-2.2-1.9-3.1c-1.2-1.4-2.5-2.4-3.7-3.1c-1.2-0.7-2.6-1.2-4.1-1.6
			c-1.5-0.4-3.1-0.6-4.6-0.6c-0.2,0-0.4,0-0.6,0c-0.2,0-0.4,0-0.6,0c-1.6,0-3.1,0.2-4.6,0.6s-2.9,0.9-4.1,1.6
			c-1.2,0.7-2.5,1.7-3.7,3.1c-0.9,1-1.5,2-1.9,3.1c-0.6,1.5-0.9,3-0.9,4.6v0.3v0.3c0,1.6,0.3,3.1,0.9,4.6c0.4,1.1,1.1,2.2,1.9,3.1
			c1.2,1.4,2.5,2.4,3.7,3.1c1.2,0.7,2.6,1.2,4.1,1.6c1.5,0.4,3.1,0.6,4.6,0.6c0.2,0,0.4,0,0.6,0c0.2,0,0.4,0,0.6,0
			c1.6,0,3.1-0.2,4.6-0.6c1.5-0.4,2.9-0.9,4.1-1.6c1.2-0.7,2.5-1.7,3.7-3.1c0.9-1,1.5-2,1.9-3.1c0.6-1.5,0.9-3,0.9-4.6v-0.3v-0.3
			C247.5,38.3,247.2,36.8,246.6,35.3 M243.4,40.3c0,1.8-0.3,3.5-0.9,5.3c-0.5,1.3-1.2,2.5-2.3,3.5c-1.1,1-2.3,1.8-3.8,2.4
			c-1.5,0.6-3.1,0.9-4.8,0.9h0h0c-1.7,0-3.3-0.3-4.8-0.9c-1.5-0.6-2.8-1.4-3.8-2.4c-1.1-1-1.8-2.2-2.3-3.5c-0.6-1.7-0.9-3.5-0.9-5.3
			v0v-0.1c0-1.8,0.3-3.5,0.9-5.2c0.5-1.3,1.2-2.5,2.3-3.5c1-1,2.3-1.8,3.8-2.4c1.5-0.6,3.1-0.8,4.8-0.8h0h0c1.7,0,3.3,0.3,4.8,0.8
			c1.5,0.6,2.8,1.4,3.8,2.4c1,1,1.8,2.2,2.3,3.5c0.6,1.7,0.9,3.5,0.9,5.2V40.3L243.4,40.3"/>
	</g>
</g>
<g>
	<path class="st2" d="M16,155.4V151h0.8c0.3,0,0.5,0,0.7,0c0.1,0,0.3,0.1,0.4,0.2c0.1,0.1,0.2,0.2,0.3,0.4c0.1,0.2,0.1,0.4,0.1,0.6
		c0,0.4-0.1,0.7-0.4,0.9c-0.2,0.2-0.6,0.3-1.1,0.3h-0.5v2H16z M16.4,153.1h0.3c0.5,0,0.8-0.1,1-0.2c0.2-0.1,0.2-0.3,0.2-0.6
		c0-0.1,0-0.3-0.1-0.4c0-0.1-0.1-0.2-0.2-0.3c-0.1-0.1-0.2-0.1-0.3-0.2c-0.1,0-0.4-0.1-0.7-0.1h-0.3V153.1z"/>
	<path class="st2" d="M19.6,155.4l1.9-4.6l1.8,4.6H23l-0.6-1.5h-1.8l-0.6,1.5H19.6z M20.7,153.6h1.5l-0.7-1.9L20.7,153.6z"/>
	<path class="st2" d="M25.1,154.6l0.3-0.2c0.1,0.2,0.2,0.4,0.3,0.5c0.2,0.1,0.3,0.2,0.6,0.2c0.3,0,0.5-0.1,0.6-0.2
		c0.2-0.2,0.2-0.4,0.2-0.7c0-0.2-0.1-0.4-0.2-0.5c-0.1-0.1-0.3-0.3-0.7-0.5c-0.4-0.2-0.7-0.4-0.9-0.6c-0.1-0.2-0.2-0.4-0.2-0.6
		c0-0.3,0.1-0.6,0.3-0.8c0.2-0.2,0.5-0.3,0.8-0.3c0.2,0,0.4,0,0.6,0.1c0.2,0.1,0.3,0.2,0.4,0.4l-0.3,0.2c-0.1-0.1-0.2-0.2-0.3-0.3
		c-0.1-0.1-0.3-0.1-0.4-0.1c-0.2,0-0.4,0.1-0.5,0.2c-0.1,0.1-0.2,0.3-0.2,0.5c0,0.3,0.3,0.6,0.8,0.9c0.1,0,0.2,0.1,0.2,0.1
		c0.4,0.2,0.6,0.4,0.7,0.6c0.1,0.2,0.2,0.4,0.2,0.7c0,0.4-0.1,0.7-0.3,0.9c-0.2,0.2-0.5,0.3-0.9,0.3c-0.3,0-0.5-0.1-0.7-0.2
		C25.4,155.1,25.2,154.9,25.1,154.6"/>
	<path class="st2" d="M29.7,154.6l0.3-0.2c0.1,0.2,0.2,0.4,0.3,0.5c0.2,0.1,0.3,0.2,0.6,0.2c0.3,0,0.5-0.1,0.6-0.2
		c0.2-0.2,0.2-0.4,0.2-0.7c0-0.2-0.1-0.4-0.2-0.5c-0.1-0.1-0.3-0.3-0.7-0.5c-0.4-0.2-0.7-0.4-0.9-0.6c-0.1-0.2-0.2-0.4-0.2-0.6
		c0-0.3,0.1-0.6,0.3-0.8c0.2-0.2,0.5-0.3,0.8-0.3c0.2,0,0.4,0,0.6,0.1c0.2,0.1,0.3,0.2,0.4,0.4l-0.3,0.2c-0.1-0.1-0.2-0.2-0.3-0.3
		c-0.1-0.1-0.3-0.1-0.4-0.1c-0.2,0-0.4,0.1-0.5,0.2c-0.1,0.1-0.2,0.3-0.2,0.5c0,0.3,0.3,0.6,0.8,0.9c0.1,0,0.2,0.1,0.2,0.1
		c0.4,0.2,0.6,0.4,0.7,0.6c0.1,0.2,0.2,0.4,0.2,0.7c0,0.4-0.1,0.7-0.3,0.9c-0.2,0.2-0.5,0.3-0.9,0.3c-0.3,0-0.5-0.1-0.7-0.2
		C29.9,155.1,29.8,154.9,29.7,154.6"/>
	<rect x="34.6" y="151" class="st2" width="0.4" height="4.4"/>
	<path class="st2" d="M42.1,153.2c0,0.3-0.1,0.6-0.2,0.9c-0.1,0.3-0.3,0.5-0.5,0.7c-0.2,0.2-0.5,0.4-0.8,0.5
		c-0.3,0.1-0.6,0.2-0.9,0.2c-0.3,0-0.6-0.1-0.9-0.2c-0.3-0.1-0.5-0.3-0.8-0.5c-0.2-0.2-0.4-0.5-0.5-0.7c-0.1-0.3-0.2-0.6-0.2-0.9
		c0-0.3,0.1-0.6,0.2-0.9c0.1-0.3,0.3-0.5,0.5-0.7c0.2-0.2,0.5-0.4,0.7-0.5c0.3-0.1,0.6-0.2,0.9-0.2c0.3,0,0.6,0.1,0.9,0.2
		c0.3,0.1,0.5,0.3,0.8,0.5c0.2,0.2,0.4,0.5,0.5,0.7C42,152.6,42.1,152.9,42.1,153.2 M39.7,155.1c0.3,0,0.5,0,0.7-0.1
		c0.2-0.1,0.4-0.2,0.6-0.4c0.2-0.2,0.3-0.4,0.4-0.6c0.1-0.2,0.1-0.5,0.1-0.7c0-0.3,0-0.5-0.1-0.7c-0.1-0.2-0.2-0.4-0.4-0.6
		c-0.2-0.2-0.4-0.3-0.6-0.4c-0.2-0.1-0.5-0.1-0.7-0.1c-0.3,0-0.5,0-0.7,0.1c-0.2,0.1-0.4,0.2-0.6,0.4c-0.2,0.2-0.3,0.4-0.4,0.6
		c-0.1,0.2-0.1,0.5-0.1,0.7c0,0.3,0,0.5,0.1,0.7c0.1,0.2,0.2,0.4,0.4,0.6c0.2,0.2,0.4,0.3,0.6,0.4C39.2,155.1,39.5,155.1,39.7,155.1
		"/>
	<polygon class="st2" points="44.5,155.4 44.5,150.8 47.6,154.5 47.6,151 48,151 48,155.5 44.9,151.8 44.9,155.4 	"/>
	<path class="st2" d="M53.3,155.4l1.9-4.6l1.8,4.6h-0.4l-0.6-1.5h-1.8l-0.6,1.5H53.3z M54.4,153.6h1.5l-0.7-1.9L54.4,153.6z"/>
	<polygon class="st2" points="59.5,155.4 59.5,151.4 58.3,151.4 58.3,151 61.1,151 61.1,151.4 59.9,151.4 59.9,155.4 	"/>
	<polygon class="st2" points="67.6,155.6 66.1,151 66.5,151 67.6,154.5 68.8,150.8 70,154.5 71.1,151 71.5,151 70,155.6 68.8,151.8 
			"/>
	<path class="st2" d="M78.1,153.2c0,0.3-0.1,0.6-0.2,0.9c-0.1,0.3-0.3,0.5-0.5,0.7c-0.2,0.2-0.5,0.4-0.8,0.5
		c-0.3,0.1-0.6,0.2-0.9,0.2c-0.3,0-0.6-0.1-0.9-0.2c-0.3-0.1-0.5-0.3-0.8-0.5c-0.2-0.2-0.4-0.5-0.5-0.7c-0.1-0.3-0.2-0.6-0.2-0.9
		c0-0.3,0.1-0.6,0.2-0.9c0.1-0.3,0.3-0.5,0.5-0.7c0.2-0.2,0.5-0.4,0.7-0.5c0.3-0.1,0.6-0.2,0.9-0.2c0.3,0,0.6,0.1,0.9,0.2
		c0.3,0.1,0.5,0.3,0.8,0.5c0.2,0.2,0.4,0.5,0.5,0.7C78,152.6,78.1,152.9,78.1,153.2 M75.7,155.1c0.3,0,0.5,0,0.7-0.1
		c0.2-0.1,0.4-0.2,0.6-0.4c0.2-0.2,0.3-0.4,0.4-0.6c0.1-0.2,0.1-0.5,0.1-0.7c0-0.3,0-0.5-0.1-0.7c-0.1-0.2-0.2-0.4-0.4-0.6
		c-0.2-0.2-0.4-0.3-0.6-0.4c-0.2-0.1-0.5-0.1-0.7-0.1c-0.3,0-0.5,0-0.7,0.1c-0.2,0.1-0.4,0.2-0.6,0.4c-0.2,0.2-0.3,0.4-0.4,0.6
		c-0.1,0.2-0.1,0.5-0.1,0.7c0,0.3,0,0.5,0.1,0.7c0.1,0.2,0.2,0.4,0.4,0.6c0.2,0.2,0.4,0.3,0.6,0.4C75.2,155.1,75.5,155.1,75.7,155.1
		"/>
	<path class="st2" d="M83.2,155.4h-0.5l-1.5-2.1h-0.2v2.1h-0.4V151h0.8c0.5,0,0.8,0.1,1.1,0.3c0.2,0.2,0.4,0.5,0.4,0.9
		c0,0.3-0.1,0.6-0.3,0.8c-0.2,0.2-0.5,0.3-0.8,0.3L83.2,155.4z M80.9,151.3v1.6h0.4c0.4,0,0.6-0.1,0.8-0.2c0.1-0.1,0.2-0.3,0.2-0.6
		c0-0.3-0.1-0.5-0.2-0.6c-0.2-0.1-0.4-0.2-0.8-0.2H80.9z"/>
	<polygon class="st2" points="85.3,155.4 85.3,151 85.7,151 85.7,153.1 87.6,151 88.2,151 86.1,153.1 88.3,155.4 87.7,155.4 
		85.7,153.2 85.7,155.4 	"/>
	<rect x="16" y="10.7" class="st3" width="72.3" height="134.7"/>
	<path class="st4" d="M39.5,45.3c0,0.5-0.4,0.9-1,0.9c-0.5,0-1-0.4-1-0.9c0-0.5,0.4-0.9,1-0.9C39.1,44.4,39.5,44.8,39.5,45.3"/>
	<path class="st5" d="M34.6,79.8c0.9,0,1.6-0.7,1.6-1.6c0-0.9-0.7-1.6-1.6-1.6c-0.9,0-1.6,0.7-1.6,1.6C33,79.1,33.7,79.8,34.6,79.8
		 M34.6,76.4c0.9,0,1.5-0.7,1.5-1.5c0-0.8-0.7-1.5-1.5-1.5c-0.8,0-1.5,0.7-1.5,1.5C33.1,75.8,33.7,76.4,34.6,76.4 M34.6,73.1
		c0.8,0,1.5-0.6,1.5-1.4c0-0.8-0.7-1.4-1.5-1.4c-0.8,0-1.5,0.6-1.5,1.4C33.1,72.4,33.8,73.1,34.6,73.1 M34.6,69.7
		c0.8,0,1.4-0.6,1.4-1.4c0-0.8-0.6-1.4-1.4-1.4c-0.8,0-1.4,0.6-1.4,1.4C33.2,69.1,33.8,69.7,34.6,69.7 M34.6,66.4
		c0.7,0,1.3-0.6,1.3-1.3s-0.6-1.3-1.3-1.3c-0.7,0-1.3,0.6-1.3,1.3S33.9,66.4,34.6,66.4 M34.6,63c0.7,0,1.3-0.6,1.3-1.2
		s-0.6-1.2-1.3-1.2c-0.7,0-1.3,0.6-1.3,1.2S33.9,63,34.6,63 M34.6,59.7c0.7,0,1.2-0.5,1.2-1.2c0-0.6-0.5-1.2-1.2-1.2
		c-0.7,0-1.2,0.5-1.2,1.2C33.4,59.1,33.9,59.7,34.6,59.7 M34.6,56.3c0.6,0,1.1-0.5,1.1-1.1c0-0.6-0.5-1.1-1.1-1.1
		c-0.6,0-1.1,0.5-1.1,1.1C33.5,55.8,34,56.3,34.6,56.3 M39.4,93c0.6-0.3,1-0.9,1-1.6c0-0.8-0.5-1.4-1.1-1.7c0.6-0.3,1.1-0.9,1.1-1.6
		c0-0.8-0.5-1.4-1.2-1.7c0.7-0.2,1.2-0.9,1.2-1.6c0-0.8-0.6-1.5-1.4-1.7c0.8-0.1,1.4-0.8,1.4-1.6c0-0.9-0.7-1.6-1.7-1.6
		c-0.9,0-1.7,0.7-1.7,1.6c0,0.8,0.6,1.5,1.4,1.6c-0.8,0.1-1.4,0.8-1.4,1.7c0,0.7,0.5,1.4,1.2,1.6c-0.7,0.2-1.2,0.9-1.2,1.7
		c0,0.7,0.4,1.3,1.1,1.6c-0.7,0.3-1.1,0.9-1.1,1.7c0,0.7,0.4,1.3,1,1.6c-0.6,0.3-1,1-1,1.7c0,1,0.9,1.9,1.9,1.9
		c1.1,0,1.9-0.9,1.9-1.9C40.4,93.9,40,93.3,39.4,93 M38.5,79.8c0.9,0,1.6-0.7,1.6-1.6c0-0.9-0.7-1.6-1.6-1.6c-0.9,0-1.6,0.7-1.6,1.6
		C36.9,79.1,37.6,79.8,38.5,79.8 M38.5,76.4c0.8,0,1.5-0.7,1.5-1.5c0-0.8-0.7-1.5-1.5-1.5c-0.8,0-1.5,0.7-1.5,1.5
		C37,75.8,37.6,76.4,38.5,76.4 M38.5,73.1c0.8,0,1.5-0.6,1.5-1.4c0-0.8-0.7-1.4-1.5-1.4c-0.8,0-1.5,0.6-1.5,1.4
		C37,72.4,37.7,73.1,38.5,73.1 M38.5,69.7c0.8,0,1.4-0.6,1.4-1.4c0-0.8-0.6-1.4-1.4-1.4c-0.8,0-1.4,0.6-1.4,1.4
		C37.1,69.1,37.7,69.7,38.5,69.7 M38.5,66.4c0.7,0,1.3-0.6,1.3-1.3s-0.6-1.3-1.3-1.3c-0.7,0-1.3,0.6-1.3,1.3S37.8,66.4,38.5,66.4
		 M38.5,63c0.7,0,1.3-0.6,1.3-1.2s-0.6-1.2-1.3-1.2c-0.7,0-1.3,0.6-1.3,1.2S37.8,63,38.5,63 M38.5,59.7c0.7,0,1.2-0.5,1.2-1.2
		c0-0.6-0.5-1.2-1.2-1.2c-0.7,0-1.2,0.5-1.2,1.2C37.3,59.1,37.8,59.7,38.5,59.7 M38.5,56.3c0.6,0,1.1-0.5,1.1-1.1
		c0-0.6-0.5-1.1-1.1-1.1c-0.6,0-1.1,0.5-1.1,1.1C37.4,55.8,37.9,56.3,38.5,56.3 M38.5,53c0.6,0,1.1-0.5,1.1-1c0-0.6-0.5-1-1.1-1
		c-0.6,0-1.1,0.5-1.1,1C37.4,52.5,37.9,53,38.5,53 M38.5,49.6c0.5,0,1-0.4,1-1c0-0.5-0.4-1-1-1c-0.5,0-1,0.4-1,1
		C37.5,49.2,37.9,49.6,38.5,49.6 M43.3,93c0.6-0.3,1-0.9,1-1.6c0-0.8-0.5-1.4-1.1-1.7c0.6-0.3,1-0.9,1-1.6c0-0.8-0.5-1.4-1.2-1.7
		c0.7-0.2,1.2-0.9,1.2-1.6c0-0.8-0.6-1.5-1.4-1.7c0.8-0.1,1.4-0.8,1.4-1.6c0-0.9-0.8-1.6-1.7-1.6c-0.9,0-1.7,0.7-1.7,1.6
		c0,0.8,0.6,1.5,1.4,1.6c-0.8,0.1-1.4,0.8-1.4,1.7c0,0.7,0.5,1.4,1.2,1.6c-0.7,0.2-1.2,0.9-1.2,1.7c0,0.7,0.4,1.3,1.1,1.6
		c-0.7,0.3-1.1,0.9-1.1,1.7c0,0.7,0.4,1.3,1,1.6c-0.6,0.3-1,1-1,1.7c0,1,0.9,1.9,1.9,1.9c1.1,0,1.9-0.9,1.9-1.9
		C44.3,93.9,43.9,93.3,43.3,93 M42.4,79.8c0.9,0,1.6-0.7,1.6-1.6c0-0.9-0.7-1.6-1.6-1.6c-0.9,0-1.6,0.7-1.6,1.6
		C40.8,79.1,41.5,79.8,42.4,79.8 M42.4,76.4c0.8,0,1.5-0.7,1.5-1.5c0-0.8-0.7-1.5-1.5-1.5c-0.8,0-1.5,0.7-1.5,1.5
		C40.8,75.8,41.5,76.4,42.4,76.4 M42.4,73.1c0.8,0,1.5-0.6,1.5-1.4c0-0.8-0.7-1.4-1.5-1.4c-0.8,0-1.5,0.6-1.5,1.4
		C40.9,72.4,41.6,73.1,42.4,73.1 M42.4,69.7c0.8,0,1.4-0.6,1.4-1.4c0-0.8-0.6-1.4-1.4-1.4c-0.8,0-1.4,0.6-1.4,1.4
		C41,69.1,41.6,69.7,42.4,69.7 M42.4,66.4c0.7,0,1.3-0.6,1.3-1.3s-0.6-1.3-1.3-1.3c-0.7,0-1.3,0.6-1.3,1.3S41.7,66.4,42.4,66.4
		 M42.4,63c0.7,0,1.3-0.6,1.3-1.2s-0.6-1.2-1.3-1.2s-1.3,0.6-1.3,1.2S41.7,63,42.4,63 M47.2,93c0.6-0.3,1-0.9,1-1.6
		c0-0.8-0.5-1.4-1.1-1.7c0.6-0.3,1.1-0.9,1.1-1.6c0-0.8-0.5-1.4-1.2-1.7c0.7-0.2,1.2-0.9,1.2-1.6c0-0.8-0.6-1.5-1.4-1.7
		c0.8-0.1,1.4-0.8,1.4-1.6c0-0.9-0.7-1.6-1.7-1.6c-0.9,0-1.7,0.7-1.7,1.6c0,0.8,0.6,1.5,1.4,1.6c-0.8,0.1-1.4,0.8-1.4,1.7
		c0,0.7,0.5,1.4,1.2,1.6c-0.7,0.2-1.2,0.9-1.2,1.7c0,0.7,0.4,1.3,1.1,1.6c-0.7,0.3-1.1,0.9-1.1,1.7c0,0.7,0.4,1.3,1,1.6
		c-0.6,0.3-1,1-1,1.7c0,1,0.9,1.9,1.9,1.9c1.1,0,1.9-0.9,1.9-1.9C48.2,93.9,47.8,93.3,47.2,93 M46.3,79.8c0.9,0,1.6-0.7,1.6-1.6
		c0-0.9-0.7-1.6-1.6-1.6c-0.9,0-1.6,0.7-1.6,1.6C44.7,79.1,45.4,79.8,46.3,79.8 M46.3,76.4c0.8,0,1.5-0.7,1.5-1.5
		c0-0.8-0.7-1.5-1.5-1.5c-0.9,0-1.5,0.7-1.5,1.5C44.7,75.8,45.4,76.4,46.3,76.4 M46.3,73.1c0.8,0,1.5-0.6,1.5-1.4
		c0-0.8-0.7-1.4-1.5-1.4c-0.8,0-1.5,0.6-1.5,1.4C44.8,72.4,45.5,73.1,46.3,73.1 M46.3,69.7c0.8,0,1.4-0.6,1.4-1.4
		c0-0.8-0.6-1.4-1.4-1.4c-0.8,0-1.4,0.6-1.4,1.4C44.9,69.1,45.5,69.7,46.3,69.7 M46.3,66.4c0.7,0,1.3-0.6,1.3-1.3s-0.6-1.3-1.3-1.3
		c-0.7,0-1.3,0.6-1.3,1.3S45.5,66.4,46.3,66.4 M46.3,63c0.7,0,1.3-0.6,1.3-1.2s-0.6-1.2-1.3-1.2c-0.7,0-1.3,0.6-1.3,1.2
		S45.6,63,46.3,63 M46.3,59.7c0.7,0,1.2-0.5,1.2-1.2c0-0.6-0.5-1.2-1.2-1.2c-0.7,0-1.2,0.5-1.2,1.2C45.1,59.1,45.6,59.7,46.3,59.7
		 M46.3,56.3c0.6,0,1.1-0.5,1.1-1.1c0-0.6-0.5-1.1-1.1-1.1c-0.6,0-1.1,0.5-1.1,1.1C45.1,55.8,45.6,56.3,46.3,56.3 M46.3,53
		c0.6,0,1.1-0.5,1.1-1c0-0.6-0.5-1-1.1-1c-0.6,0-1.1,0.5-1.1,1C45.2,52.5,45.7,53,46.3,53 M51.1,93c0.6-0.3,1-0.9,1-1.6
		c0-0.8-0.5-1.4-1.1-1.7c0.6-0.3,1.1-0.9,1.1-1.6c0-0.8-0.5-1.4-1.2-1.7c0.7-0.2,1.2-0.9,1.2-1.6c0-0.8-0.6-1.5-1.4-1.7
		c0.8-0.1,1.4-0.8,1.4-1.6c0-0.9-0.7-1.6-1.7-1.6c-0.9,0-1.7,0.7-1.7,1.6c0,0.8,0.6,1.5,1.4,1.6c-0.8,0.1-1.4,0.8-1.4,1.7
		c0,0.7,0.5,1.4,1.2,1.6c-0.7,0.2-1.2,0.9-1.2,1.7c0,0.7,0.4,1.3,1.1,1.6c-0.7,0.3-1.1,0.9-1.1,1.7c0,0.7,0.4,1.3,1,1.6
		c-0.6,0.3-1,1-1,1.7c0,1,0.9,1.9,1.9,1.9c1.1,0,1.9-0.9,1.9-1.9C52.1,93.9,51.7,93.3,51.1,93 M50.2,79.8c0.9,0,1.6-0.7,1.6-1.6
		c0-0.9-0.7-1.6-1.6-1.6c-0.9,0-1.6,0.7-1.6,1.6C48.6,79.1,49.3,79.8,50.2,79.8 M50.2,76.4c0.9,0,1.5-0.7,1.5-1.5
		c0-0.8-0.7-1.5-1.5-1.5c-0.9,0-1.5,0.7-1.5,1.5C48.6,75.8,49.3,76.4,50.2,76.4 M50.2,73.1c0.8,0,1.5-0.6,1.5-1.4
		c0-0.8-0.7-1.4-1.5-1.4c-0.8,0-1.5,0.6-1.5,1.4C48.7,72.4,49.4,73.1,50.2,73.1 M50.2,69.7c0.8,0,1.4-0.6,1.4-1.4
		c0-0.8-0.6-1.4-1.4-1.4c-0.8,0-1.4,0.6-1.4,1.4C48.8,69.1,49.4,69.7,50.2,69.7 M50.2,66.4c0.7,0,1.3-0.6,1.3-1.3s-0.6-1.3-1.3-1.3
		c-0.7,0-1.3,0.6-1.3,1.3S49.4,66.4,50.2,66.4 M50.2,63c0.7,0,1.3-0.6,1.3-1.2s-0.6-1.2-1.3-1.2c-0.7,0-1.3,0.6-1.3,1.2
		S49.5,63,50.2,63 M50.2,59.7c0.7,0,1.2-0.5,1.2-1.2c0-0.6-0.5-1.2-1.2-1.2c-0.7,0-1.2,0.5-1.2,1.2C49,59.1,49.5,59.7,50.2,59.7
		 M50.2,56.3c0.6,0,1.1-0.5,1.1-1.1c0-0.6-0.5-1.1-1.1-1.1c-0.6,0-1.1,0.5-1.1,1.1C49,55.8,49.5,56.3,50.2,56.3 M50.2,53
		c0.6,0,1.1-0.5,1.1-1c0-0.6-0.5-1-1.1-1c-0.6,0-1.1,0.5-1.1,1C49.1,52.5,49.6,53,50.2,53 M55,93c0.6-0.3,1-0.9,1-1.6
		c0-0.8-0.5-1.4-1.1-1.7c0.6-0.3,1.1-0.9,1.1-1.6c0-0.8-0.5-1.4-1.2-1.7c0.7-0.2,1.2-0.9,1.2-1.6c0-0.8-0.6-1.5-1.4-1.7
		c0.8-0.1,1.4-0.8,1.4-1.6c0-0.9-0.7-1.6-1.7-1.6c-0.9,0-1.7,0.7-1.7,1.6c0,0.8,0.6,1.5,1.4,1.6c-0.8,0.1-1.4,0.8-1.4,1.7
		c0,0.7,0.5,1.4,1.2,1.6c-0.7,0.2-1.2,0.9-1.2,1.7c0,0.7,0.4,1.3,1.1,1.6c-0.7,0.3-1.1,0.9-1.1,1.7c0,0.7,0.4,1.3,1,1.6
		c-0.6,0.3-1,1-1,1.7c0,1,0.9,1.9,1.9,1.9c1.1,0,1.9-0.9,1.9-1.9C56,93.9,55.6,93.3,55,93 M54.1,79.8c0.9,0,1.6-0.7,1.6-1.6
		c0-0.9-0.7-1.6-1.6-1.6c-0.9,0-1.6,0.7-1.6,1.6C52.5,79.1,53.2,79.8,54.1,79.8 M54.1,76.4c0.8,0,1.5-0.7,1.5-1.5
		c0-0.8-0.7-1.5-1.5-1.5c-0.8,0-1.5,0.7-1.5,1.5C52.5,75.8,53.2,76.4,54.1,76.4 M54.1,73.1c0.8,0,1.5-0.6,1.5-1.4
		c0-0.8-0.7-1.4-1.5-1.4c-0.8,0-1.5,0.6-1.5,1.4C52.6,72.4,53.3,73.1,54.1,73.1 M58,79.8c0.9,0,1.6-0.7,1.6-1.6
		c0-0.9-0.7-1.6-1.6-1.6c-0.9,0-1.6,0.7-1.6,1.6C56.4,79.1,57.1,79.8,58,79.8 M58,76.4c0.8,0,1.5-0.7,1.5-1.5c0-0.8-0.7-1.5-1.5-1.5
		c-0.9,0-1.5,0.7-1.5,1.5C56.4,75.8,57.1,76.4,58,76.4 M58,73.1c0.8,0,1.5-0.6,1.5-1.4c0-0.8-0.7-1.4-1.5-1.4
		c-0.8,0-1.5,0.6-1.5,1.4C56.5,72.4,57.1,73.1,58,73.1 M58,69.7c0.8,0,1.4-0.6,1.4-1.4c0-0.8-0.6-1.4-1.4-1.4
		c-0.8,0-1.4,0.6-1.4,1.4C56.6,69.1,57.2,69.7,58,69.7 M61.8,79.8c0.9,0,1.6-0.7,1.6-1.6c0-0.9-0.7-1.6-1.6-1.6
		c-0.9,0-1.6,0.7-1.6,1.6C60.2,79.1,61,79.8,61.8,79.8 M61.8,76.4c0.8,0,1.5-0.7,1.5-1.5c0-0.8-0.7-1.5-1.5-1.5
		c-0.9,0-1.5,0.7-1.5,1.5C60.3,75.8,61,76.4,61.8,76.4 M61.8,73.1c0.8,0,1.5-0.6,1.5-1.4c0-0.8-0.7-1.4-1.5-1.4
		c-0.8,0-1.5,0.6-1.5,1.4C60.4,72.4,61,73.1,61.8,73.1 M61.8,69.7c0.8,0,1.4-0.6,1.4-1.4c0-0.8-0.6-1.4-1.4-1.4s-1.4,0.6-1.4,1.4
		C60.4,69.1,61.1,69.7,61.8,69.7 M61.8,66.4c0.7,0,1.3-0.6,1.3-1.3s-0.6-1.3-1.3-1.3c-0.7,0-1.3,0.6-1.3,1.3S61.1,66.4,61.8,66.4
		 M61.8,63c0.7,0,1.3-0.6,1.3-1.2s-0.6-1.2-1.3-1.2s-1.3,0.6-1.3,1.2S61.2,63,61.8,63 M61.8,59.7c0.7,0,1.2-0.5,1.2-1.2
		c0-0.6-0.5-1.2-1.2-1.2c-0.7,0-1.2,0.5-1.2,1.2C60.7,59.1,61.2,59.7,61.8,59.7 M66.7,93c0.6-0.3,1-0.9,1-1.6c0-0.8-0.5-1.4-1.1-1.7
		c0.6-0.3,1.1-0.9,1.1-1.6c0-0.8-0.5-1.4-1.2-1.7c0.7-0.2,1.2-0.9,1.2-1.6c0-0.8-0.6-1.5-1.4-1.7c0.8-0.1,1.4-0.8,1.4-1.6
		c0-0.9-0.7-1.6-1.7-1.6c-0.9,0-1.7,0.7-1.7,1.6c0,0.8,0.6,1.5,1.4,1.6C64.6,83.3,64,84,64,84.8c0,0.7,0.5,1.4,1.2,1.6
		c-0.7,0.2-1.2,0.9-1.2,1.7c0,0.7,0.4,1.3,1.1,1.6c-0.7,0.3-1.1,0.9-1.1,1.7c0,0.7,0.4,1.3,1,1.6c-0.6,0.3-1,1-1,1.7
		c0-0.7-0.4-1.4-1-1.7c0.6-0.3,1-0.9,1-1.6c0-0.8-0.5-1.4-1.1-1.7c0.6-0.3,1-0.9,1-1.6c0-0.8-0.5-1.4-1.2-1.7
		c0.7-0.2,1.2-0.9,1.2-1.6c0-0.8-0.6-1.5-1.4-1.7c0.8-0.1,1.4-0.8,1.4-1.6c0-0.9-0.8-1.6-1.7-1.6c-0.9,0-1.7,0.7-1.7,1.6
		c0,0.8,0.6,1.5,1.4,1.6c-0.8,0.1-1.4,0.8-1.4,1.7c0,0.7,0.5,1.4,1.2,1.6c-0.7,0.2-1.2,0.9-1.2,1.7c0,0.7,0.4,1.3,1.1,1.6
		C60.4,90,60,90.6,60,91.4c0,0.7,0.4,1.3,1,1.6c-0.6,0.3-1,1-1,1.7c0-0.7-0.4-1.4-1-1.7c0.6-0.3,1-0.9,1-1.6c0-0.8-0.5-1.4-1.1-1.7
		c0.6-0.3,1.1-0.9,1.1-1.6c0-0.8-0.5-1.4-1.2-1.7c0.7-0.2,1.2-0.9,1.2-1.6c0-0.8-0.6-1.5-1.4-1.7c0.8-0.1,1.4-0.8,1.4-1.6
		c0-0.9-0.7-1.6-1.7-1.6c-0.9,0-1.7,0.7-1.7,1.6c0,0.8,0.6,1.5,1.4,1.6c-0.8,0.1-1.4,0.8-1.4,1.7c0,0.7,0.5,1.4,1.2,1.6
		c-0.7,0.2-1.2,0.9-1.2,1.7c0,0.7,0.4,1.3,1,1.6c-0.7,0.3-1.1,0.9-1.1,1.7c0,0.7,0.4,1.3,1,1.6c-0.6,0.3-1,1-1,1.7
		c0,1,0.9,1.9,1.9,1.9s1.9-0.9,1.9-1.9c0,1,0.9,1.9,1.9,1.9c1.1,0,1.9-0.9,1.9-1.9c0,1,0.9,1.9,1.9,1.9c1.1,0,1.9-0.9,1.9-1.9
		C67.7,93.9,67.3,93.3,66.7,93 M65.7,79.8c0.9,0,1.6-0.7,1.6-1.6c0-0.9-0.7-1.6-1.6-1.6c-0.9,0-1.6,0.7-1.6,1.6
		C64.1,79.1,64.8,79.8,65.7,79.8 M65.7,76.4c0.8,0,1.5-0.7,1.5-1.5c0-0.8-0.7-1.5-1.5-1.5c-0.8,0-1.5,0.7-1.5,1.5
		C64.2,75.8,64.9,76.4,65.7,76.4 M65.7,73.1c0.8,0,1.5-0.6,1.5-1.4c0-0.8-0.7-1.4-1.5-1.4c-0.8,0-1.5,0.6-1.5,1.4
		C64.3,72.4,64.9,73.1,65.7,73.1 M65.7,69.7c0.8,0,1.4-0.6,1.4-1.4c0-0.8-0.6-1.4-1.4-1.4c-0.8,0-1.4,0.6-1.4,1.4
		C64.3,69.1,65,69.7,65.7,69.7 M65.7,66.4c0.7,0,1.3-0.6,1.3-1.3s-0.6-1.3-1.3-1.3c-0.7,0-1.3,0.6-1.3,1.3S65,66.4,65.7,66.4
		 M65.7,63c0.7,0,1.3-0.6,1.3-1.2s-0.6-1.2-1.3-1.2c-0.7,0-1.3,0.6-1.3,1.2S65,63,65.7,63 M65.7,59.7c0.7,0,1.2-0.5,1.2-1.2
		c0-0.6-0.5-1.2-1.2-1.2c-0.7,0-1.2,0.5-1.2,1.2C64.5,59.1,65.1,59.7,65.7,59.7 M65.7,56.3c0.6,0,1.1-0.5,1.1-1.1
		c0-0.6-0.5-1.1-1.1-1.1c-0.6,0-1.1,0.5-1.1,1.1C64.6,55.8,65.1,56.3,65.7,56.3 M65.7,53c0.6,0,1.1-0.5,1.1-1c0-0.6-0.5-1-1.1-1
		c-0.6,0-1.1,0.5-1.1,1C64.7,52.5,65.2,53,65.7,53 M65.7,49.6c0.5,0,1-0.4,1-1c0-0.5-0.4-1-1-1c-0.5,0-1,0.4-1,1
		C64.7,49.2,65.2,49.6,65.7,49.6 M70.5,93c0.6-0.3,1-0.9,1-1.6c0-0.8-0.5-1.4-1.1-1.7c0.6-0.3,1-0.9,1-1.6c0-0.8-0.5-1.4-1.2-1.7
		c0.7-0.2,1.2-0.9,1.2-1.6c0-0.8-0.6-1.5-1.4-1.7c0.8-0.1,1.4-0.8,1.4-1.6c0-0.9-0.8-1.6-1.7-1.6c-0.9,0-1.7,0.7-1.7,1.6
		c0,0.8,0.6,1.5,1.4,1.6c-0.8,0.1-1.4,0.8-1.4,1.7c0,0.7,0.5,1.4,1.2,1.6c-0.7,0.2-1.2,0.9-1.2,1.7c0,0.7,0.4,1.3,1,1.6
		c-0.7,0.3-1.1,0.9-1.1,1.7c0,0.7,0.4,1.3,1,1.6c-0.6,0.3-1,1-1,1.7c0,1,0.9,1.9,2,1.9c1.1,0,1.9-0.9,1.9-1.9
		C71.6,93.9,71.2,93.3,70.5,93 M69.6,79.8c0.9,0,1.6-0.7,1.6-1.6c0-0.9-0.7-1.6-1.6-1.6c-0.9,0-1.6,0.7-1.6,1.6
		C68,79.1,68.7,79.8,69.6,79.8 M69.6,76.4c0.8,0,1.5-0.7,1.5-1.5c0-0.8-0.7-1.5-1.5-1.5c-0.9,0-1.5,0.7-1.5,1.5
		C68.1,75.8,68.8,76.4,69.6,76.4 M69.6,73.1c0.8,0,1.5-0.6,1.5-1.4c0-0.8-0.6-1.4-1.5-1.4c-0.8,0-1.5,0.6-1.5,1.4
		C68.2,72.4,68.8,73.1,69.6,73.1 M69.6,69.7c0.8,0,1.4-0.6,1.4-1.4c0-0.8-0.6-1.4-1.4-1.4c-0.8,0-1.4,0.6-1.4,1.4
		C68.2,69.1,68.9,69.7,69.6,69.7 M69.6,66.4c0.7,0,1.3-0.6,1.3-1.3s-0.6-1.3-1.3-1.3c-0.7,0-1.3,0.6-1.3,1.3S68.9,66.4,69.6,66.4
		 M69.6,63c0.7,0,1.3-0.6,1.3-1.2s-0.6-1.2-1.3-1.2c-0.7,0-1.3,0.6-1.3,1.2S68.9,63,69.6,63 M69.6,59.7c0.7,0,1.2-0.5,1.2-1.2
		c0-0.6-0.5-1.2-1.2-1.2c-0.7,0-1.2,0.5-1.2,1.2C68.4,59.1,69,59.7,69.6,59.7 M69.6,56.3c0.6,0,1.1-0.5,1.1-1.1
		c0-0.6-0.5-1.1-1.1-1.1c-0.6,0-1.1,0.5-1.1,1.1C68.5,55.8,69,56.3,69.6,56.3 M69.6,53c0.6,0,1.1-0.5,1.1-1c0-0.6-0.5-1-1.1-1
		c-0.6,0-1.1,0.5-1.1,1C68.6,52.5,69,53,69.6,53 M69.6,49.6c0.5,0,1-0.4,1-1c0-0.5-0.4-1-1-1c-0.5,0-1,0.4-1,1
		C68.6,49.2,69.1,49.6,69.6,49.6 M35.5,93c0.6-0.3,1-0.9,1-1.6c0-0.8-0.5-1.4-1.1-1.7c0.6-0.3,1.1-0.9,1.1-1.6
		c0-0.8-0.5-1.4-1.2-1.7c0.7-0.2,1.2-0.9,1.2-1.6c0-0.8-0.6-1.5-1.4-1.7c0.8-0.1,1.4-0.8,1.4-1.6c0-0.9-0.8-1.6-1.7-1.6
		c-0.9,0-1.7,0.7-1.7,1.6c0,0.8,0.6,1.5,1.4,1.6c-0.8,0.1-1.4,0.8-1.4,1.7c0,0.7,0.5,1.4,1.2,1.6c-0.7,0.2-1.2,0.9-1.2,1.7
		c0,0.7,0.4,1.3,1,1.6c-0.7,0.3-1.1,0.9-1.1,1.7c0,0.7,0.4,1.3,1,1.6c-0.6,0.3-1,1-1,1.7c0,1,0.9,1.9,1.9,1.9c1.1,0,1.9-0.9,1.9-1.9
		C36.5,93.9,36.1,93.3,35.5,93"/>
	<path class="st2" d="M30.1,106.9c-0.2-0.3-0.4-0.6-0.8-0.8c-0.4-0.2-0.9-0.5-1.8-0.9c-1-0.4-1.7-0.8-1.9-1
		c-0.2-0.2-0.4-0.5-0.4-0.7c0-0.3,0.2-0.6,0.5-0.9c0.4-0.3,0.8-0.4,1.4-0.4c0.5,0,1,0.1,1.4,0.4c0.3,0.2,0.7,0.6,0.9,1.1
		c0,0,0.1,0.1,0.1,0.1c0.1,0,0.1,0,0.1-0.1l0.1-1.4c-0.3-0.2-0.7-0.4-1-0.4c-0.4-0.1-0.8-0.1-1.3-0.1c-0.9,0-1.7,0.2-2.3,0.6
		c-0.6,0.4-0.8,0.9-0.8,1.5c0,0.3,0.1,0.6,0.2,0.9c0.2,0.3,0.5,0.6,1,0.9c0.3,0.2,0.8,0.4,1.7,0.8c0.9,0.4,1.4,0.7,1.7,1
		c0.3,0.3,0.4,0.6,0.4,0.9c0,0.2-0.1,0.5-0.3,0.7c-0.2,0.3-0.4,0.4-0.8,0.6c-0.3,0.1-0.7,0.2-1.1,0.2c-0.6,0-1.2-0.2-1.7-0.6
		c-0.5-0.4-0.8-0.7-0.9-1.2c0,0,0-0.1,0-0.1c0-0.1-0.1-0.1-0.2-0.1c-0.1,0-0.2,0.1-0.2,0.1c0,0.1-0.1,1.7-0.1,1.7
		c0,0.1,0,0.1,0.1,0.2c0.1,0.1,0.3,0.2,0.7,0.3c0.6,0.2,1.3,0.3,2,0.3c0.8,0,1.4-0.1,1.9-0.3c0.5-0.2,0.9-0.5,1.1-0.9
		c0.3-0.4,0.4-0.8,0.4-1.3C30.3,107.5,30.3,107.2,30.1,106.9"/>
	<path class="st2" d="M52,105.5c1-0.3,1.7-1,1.7-1.7c0-1.1-1.5-1.9-3.3-1.9l0,0c-0.6,0-1.4,0-1.7,0c-0.7,0-1.2,0.1-1.8,0.1l-0.5,0
		l0,0c-0.1,0-0.2,0-0.2,0.1c0,0.1,0.1,0.2,0.2,0.2l0.9,0.2c0.3,0.1,0.3,0.2,0.2,0.4v0v6.5l0,0c0,0.2-0.2,0.4-0.4,0.4v0l-0.7,0.2
		c-0.1,0-0.2,0.1-0.2,0.2c0,0.1,0.1,0.1,0.2,0.1h0h4.5h0c2.1,0,3.7-1.1,3.7-2.5C54.6,106.7,53.5,105.8,52,105.5 M50.1,102.3
		c0.6,0,1,0.1,1.4,0.3c0.1,0,1.5,0.7,0.6,2.1c0,0-0.5,0.9-2.3,0.9c-0.3,0-0.6,0-1-0.1l0-3C48.9,102.4,49.5,102.3,50.1,102.3
		 M52.8,109c0,0-0.6,0.8-2.2,0.8c0,0,0,0-0.1,0c-0.4,0-1.6-0.1-1.7-0.9V106c0.2,0,0.7-0.1,1.3-0.1c0.9,0,1.6,0.1,2.1,0.4
		c0,0,0.5,0.3,0.8,0.7C53.4,107.7,53.3,108.3,52.8,109"/>
	<path class="st2" d="M68.1,110L68.1,110l-0.7-0.2v0c-0.3,0-0.4-0.2-0.4-0.4v0v-6.6v0c0-0.2,0.2-0.4,0.4-0.4l0.7-0.2h0
		c0.1,0,0.2-0.1,0.2-0.2c0-0.1-0.1-0.1-0.2-0.1h0h-1.1h-1.3h-1.1h0c-0.1,0-0.2,0.1-0.2,0.1c0,0.1,0.1,0.1,0.2,0.2v0l0.7,0.2
		c0.3,0,0.4,0.2,0.4,0.4v0v3.1h-5.4v-3.1c0-0.2,0.2-0.4,0.4-0.4l0.7-0.2c0.1,0,0.2-0.1,0.2-0.2c0-0.1-0.1-0.1-0.2-0.1h0l-1.1,0v0
		h-1.3h-1.1h0c-0.1,0-0.2,0.1-0.2,0.1c0,0.1,0.1,0.1,0.2,0.2v0l0.7,0.2c0.2,0,0.4,0.2,0.4,0.3v6.8c0,0.2-0.2,0.3-0.4,0.3v0l-0.7,0.2
		c-0.1,0-0.2,0.1-0.2,0.2c0,0.1,0.1,0.1,0.2,0.1h0h1.1h1.3h1.1h0c0.1,0,0.2-0.1,0.2-0.1c0-0.1-0.1-0.2-0.2-0.2l-0.7-0.2v0
		c-0.2,0-0.4-0.2-0.4-0.4v-3.1h5.4v3.1v0c0,0.2-0.2,0.4-0.4,0.4v0l-0.7,0.2c-0.1,0-0.2,0.1-0.2,0.2c0,0.1,0.1,0.1,0.2,0.1h0h1.1h1.3
		v0l1.1,0h0c0.1,0,0.2-0.1,0.2-0.1C68.2,110.1,68.2,110,68.1,110"/>
	<path class="st2" d="M80,110L80,110l-0.5-0.1c-0.3,0-0.5-0.2-0.5-0.4l0,0l-3.5-7.6h-0.3l-3.5,7.6v0c-0.1,0.2-0.3,0.4-0.5,0.4h0
		l-0.5,0.1v0c-0.1,0-0.2,0.1-0.2,0.2c0,0.1,0.1,0.1,0.2,0.1h2.6h0c0.1,0,0.2,0,0.2-0.1c0-0.1-0.1-0.2-0.2-0.2v0l-0.6-0.2
		c-0.1,0-0.2-0.1-0.3-0.2c-0.1-0.1-0.1-0.2,0-0.3l0,0v0l1.1-2.5h3.1l1.1,2.3l0,0c0.2,0.3-0.1,0.5-0.3,0.5l-0.7,0.2v0
		c-0.1,0-0.2,0.1-0.2,0.2c0,0.1,0.1,0.1,0.2,0.1h0h3.3c0.1,0,0.2,0,0.2-0.1C80.1,110.1,80.1,110,80,110 M73.7,106.4l1.3-2.9l1.3,2.9
		H73.7z"/>
	<path class="st2" d="M43.5,106c0-0.5-0.1-1-0.3-1.5c-0.1-0.4-0.3-0.7-0.6-1c-0.4-0.5-0.8-0.8-1.2-1c-0.4-0.2-0.8-0.4-1.3-0.5
		c-0.5-0.1-1-0.2-1.5-0.2c-0.1,0-0.1,0-0.2,0c-0.1,0-0.1,0-0.2,0c-0.5,0-1,0.1-1.5,0.2c-0.5,0.1-0.9,0.3-1.3,0.5
		c-0.4,0.2-0.8,0.6-1.2,1c-0.3,0.3-0.5,0.7-0.6,1c-0.2,0.5-0.3,1-0.3,1.5v0.1v0.1c0,0.5,0.1,1,0.3,1.5c0.1,0.4,0.3,0.7,0.6,1
		c0.4,0.5,0.8,0.8,1.2,1c0.4,0.2,0.8,0.4,1.3,0.5c0.5,0.1,1,0.2,1.5,0.2c0.1,0,0.1,0,0.2,0c0.1,0,0.1,0,0.2,0c0.5,0,1-0.1,1.5-0.2
		c0.5-0.1,0.9-0.3,1.3-0.5c0.4-0.2,0.8-0.6,1.2-1c0.3-0.3,0.5-0.7,0.6-1c0.2-0.5,0.3-1,0.3-1.5v-0.1V106z M42.1,106.1
		c0,0.6-0.1,1.1-0.3,1.7c-0.1,0.4-0.4,0.8-0.7,1.1c-0.3,0.3-0.8,0.6-1.2,0.8c-0.5,0.2-1,0.3-1.5,0.3h0h0c-0.5,0-1.1-0.1-1.5-0.3
		c-0.5-0.2-0.9-0.4-1.2-0.8c-0.3-0.3-0.6-0.7-0.7-1.1c-0.2-0.6-0.3-1.1-0.3-1.7v0v0c0-0.6,0.1-1.1,0.3-1.7c0.2-0.4,0.4-0.8,0.7-1.1
		c0.3-0.3,0.7-0.6,1.2-0.8c0.5-0.2,1-0.3,1.5-0.3h0h0c0.5,0,1.1,0.1,1.5,0.3c0.5,0.2,0.9,0.4,1.2,0.8c0.3,0.3,0.6,0.7,0.7,1.1
		C42,104.9,42.1,105.5,42.1,106.1L42.1,106.1L42.1,106.1z"/>
</g>
</svg>
